<mxfile version="13.7.3" type="github" etag="Ddp6Mb34RP9Lz6jObP0A" agent="5.0 (Windows NT 10.0; Win64; x64) AppleWebKit/537.36 (KHTML, like Gecko) Chrome/70.0.3538.102 Safari/537.36 Edge/18.18363" host="app.diagrams.net" modified="2020-09-25T23:11:44.770Z">
  <diagram id="gla63Dk0FSsQ5Y3dld1r" name="Page-1">
    <mxGraphModel grid="1" shadow="0" math="0" pageHeight="827" pageWidth="1169" pageScale="1" page="1" fold="1" arrows="1" connect="1" tooltips="1" guides="1" gridSize="10" dy="-361" dx="1023">
      <root>
        <mxCell id="0" />
        <mxCell id="1" parent="0" />
        <mxCell id="bTNue8S2Y31426Qi5J3i-1" value="IBM Cloud" parent="1" vertex="1" style="shape=mxgraph.ibm.box;prType=cloud;fontStyle=0;verticalAlign=top;align=left;spacingLeft=32;spacingTop=4;fillColor=none;rounded=0;whiteSpace=wrap;html=1;strokeColor=#4376BB;strokeWidth=3;dashed=0;container=1;spacing=-4;collapsible=0;">
          <mxGeometry as="geometry" height="697" width="818" y="910" x="190" />
        </mxCell>
        <mxCell id="bTNue8S2Y31426Qi5J3i-2" value="Region" parent="bTNue8S2Y31426Qi5J3i-1" vertex="1" style="shape=mxgraph.ibm.box;prType=region;fontStyle=0;verticalAlign=top;align=left;spacingLeft=32;spacingTop=4;fillColor=none;rounded=0;whiteSpace=wrap;html=1;strokeColor=#919191;strokeWidth=2;dashed=0;container=1;spacing=-4;collapsible=0;">
          <mxGeometry as="geometry" height="643" width="791" y="39" x="13" />
        </mxCell>
        <mxCell id="bTNue8S2Y31426Qi5J3i-3" value="VPC" parent="bTNue8S2Y31426Qi5J3i-2" vertex="1" style="shape=mxgraph.ibm.box;prType=vpc;fontStyle=0;verticalAlign=top;align=left;spacingLeft=32;spacingTop=4;fillColor=none;rounded=0;whiteSpace=wrap;html=1;strokeColor=#4376BB;strokeWidth=2;dashed=0;container=1;spacing=-4;collapsible=0;">
          <mxGeometry as="geometry" height="589" width="619" y="39" x="14" />
        </mxCell>
        <mxCell id="bTNue8S2Y31426Qi5J3i-5" value="Zone 2&amp;nbsp; 10.20.0.0/18" parent="bTNue8S2Y31426Qi5J3i-3" vertex="1" style="shape=mxgraph.ibm.box;prType=zone;fontStyle=0;verticalAlign=top;align=left;spacingLeft=32;spacingTop=4;fillColor=#E0E0E0;rounded=0;whiteSpace=wrap;html=1;strokeColor=#919191;strokeWidth=1;dashed=0;container=1;spacing=-4;collapsible=0;">
          <mxGeometry as="geometry" height="537" width="222" y="37" x="382.5" />
        </mxCell>
        <mxCell id="gQvgzCO9joUDTt-hcoOc-88" value="Subnet 10.20.30.0/24 : ACL 1" parent="bTNue8S2Y31426Qi5J3i-5" vertex="1" style="shape=mxgraph.ibm.box;prType=subnet;fontStyle=0;verticalAlign=top;align=left;spacingLeft=32;spacingTop=4;fillColor=#E6F0E2;rounded=0;whiteSpace=wrap;html=1;strokeColor=#00882B;strokeWidth=1;dashed=0;container=1;spacing=-4;collapsible=0;">
          <mxGeometry as="geometry" height="415" width="200" y="30" x="22" />
        </mxCell>
        <mxCell id="gQvgzCO9joUDTt-hcoOc-89" value="VSI" parent="gQvgzCO9joUDTt-hcoOc-88" vertex="1" style="aspect=fixed;perimeter=ellipsePerimeter;html=1;align=center;shadow=0;dashed=0;image;image=img/lib/ibm/vpc/Instance.svg;dashPattern=1 1;fontColor=#000000;fontSize=12;labelPosition=center;verticalLabelPosition=bottom;verticalAlign=top;imageBackground=none;labelBackgroundColor=none;spacingTop=-6;spacingLeft=23;">
          <mxGeometry as="geometry" height="97.83" width="97.83" y="150" x="60" />
        </mxCell>
        <mxCell id="gQvgzCO9joUDTt-hcoOc-91" value="" parent="gQvgzCO9joUDTt-hcoOc-88" vertex="1" style="rounded=0;whiteSpace=wrap;html=1;">
          <mxGeometry as="geometry" height="80" width="180" y="330" x="10" />
        </mxCell>
        <mxCell id="gQvgzCO9joUDTt-hcoOc-92" value="" parent="gQvgzCO9joUDTt-hcoOc-88" vertex="1" style="aspect=fixed;perimeter=ellipsePerimeter;html=1;align=center;shadow=0;dashed=0;fontColor=#4277BB;labelBackgroundColor=#ffffff;fontSize=12;spacingTop=3;image;image=img/lib/ibm/vpc/BlockStorage.svg;">
          <mxGeometry as="geometry" height="42" width="42" y="341.1474074074074" x="139.5" />
        </mxCell>
        <mxCell id="gQvgzCO9joUDTt-hcoOc-93" value="" parent="gQvgzCO9joUDTt-hcoOc-88" vertex="1" style="aspect=fixed;perimeter=ellipsePerimeter;html=1;align=center;shadow=0;dashed=0;fontColor=#4277BB;labelBackgroundColor=#ffffff;fontSize=12;spacingTop=3;image;image=img/lib/ibm/vpc/BlockStorage.svg;">
          <mxGeometry as="geometry" height="42" width="42" y="341.1474074074074" x="82" />
        </mxCell>
        <mxCell id="gQvgzCO9joUDTt-hcoOc-94" value="" parent="gQvgzCO9joUDTt-hcoOc-88" vertex="1" style="aspect=fixed;perimeter=ellipsePerimeter;html=1;align=center;shadow=0;dashed=0;fontColor=#4277BB;labelBackgroundColor=#ffffff;fontSize=12;spacingTop=3;image;image=img/lib/ibm/vpc/BlockStorage.svg;">
          <mxGeometry as="geometry" height="42" width="42" y="341.1474074074074" x="19.5" />
        </mxCell>
        <mxCell id="gQvgzCO9joUDTt-hcoOc-95" value="Block Storage" parent="gQvgzCO9joUDTt-hcoOc-88" vertex="1" style="text;html=1;strokeColor=none;fillColor=none;align=center;verticalAlign=middle;whiteSpace=wrap;rounded=0;">
          <mxGeometry as="geometry" height="20" width="80" y="310" x="10" />
        </mxCell>
        <mxCell id="gQvgzCO9joUDTt-hcoOc-96" value="Log" parent="gQvgzCO9joUDTt-hcoOc-88" vertex="1" style="text;html=1;strokeColor=none;fillColor=none;align=center;verticalAlign=middle;whiteSpace=wrap;rounded=0;">
          <mxGeometry as="geometry" height="20" width="40" y="383.1500000000001" x="19.5" />
        </mxCell>
        <mxCell id="gQvgzCO9joUDTt-hcoOc-97" value="Data" parent="gQvgzCO9joUDTt-hcoOc-88" vertex="1" style="text;html=1;strokeColor=none;fillColor=none;align=center;verticalAlign=middle;whiteSpace=wrap;rounded=0;">
          <mxGeometry as="geometry" height="20" width="40" y="383.1500000000001" x="79" />
        </mxCell>
        <mxCell id="gQvgzCO9joUDTt-hcoOc-98" value="Backup" parent="gQvgzCO9joUDTt-hcoOc-88" vertex="1" style="text;html=1;strokeColor=none;fillColor=none;align=center;verticalAlign=middle;whiteSpace=wrap;rounded=0;">
          <mxGeometry as="geometry" height="20" width="40" y="383.1500000000001" x="150" />
        </mxCell>
        <mxCell id="gQvgzCO9joUDTt-hcoOc-99" value="&lt;b&gt;&lt;font style=&quot;font-size: 14px&quot;&gt;Secondary Hana Instance&lt;/font&gt;&lt;/b&gt;" parent="gQvgzCO9joUDTt-hcoOc-88" vertex="1" style="text;html=1;strokeColor=none;fillColor=none;align=center;verticalAlign=middle;whiteSpace=wrap;rounded=0;">
          <mxGeometry as="geometry" height="60" width="115" y="100" x="51.41" />
        </mxCell>
        <mxCell id="gQvgzCO9joUDTt-hcoOc-100" value="" parent="gQvgzCO9joUDTt-hcoOc-88" style="endArrow=classic;html=1;exitX=0.5;exitY=1;exitDx=0;exitDy=0;" edge="1" source="gQvgzCO9joUDTt-hcoOc-89">
          <mxGeometry as="geometry" height="50" width="50" relative="1">
            <mxPoint as="sourcePoint" y="240" x="299.5" />
            <mxPoint as="targetPoint" y="330" x="109.5" />
          </mxGeometry>
        </mxCell>
        <mxCell id="bTNue8S2Y31426Qi5J3i-4" value="Zone 1&amp;nbsp; 10.10.0.0/18" parent="bTNue8S2Y31426Qi5J3i-3" vertex="1" style="shape=mxgraph.ibm.box;prType=zone;fontStyle=0;verticalAlign=top;align=left;spacingLeft=32;spacingTop=4;fillColor=#E0E0E0;rounded=0;whiteSpace=wrap;html=1;strokeColor=#919191;strokeWidth=1;dashed=0;container=1;spacing=-4;collapsible=0;">
          <mxGeometry as="geometry" height="538" width="305" y="37" x="13" />
        </mxCell>
        <mxCell id="C-B6inx4KxPN2ot2ONpx-9" value="&lt;div&gt;Public &lt;br&gt;&lt;/div&gt;&lt;div&gt;Gateway&lt;/div&gt;" parent="bTNue8S2Y31426Qi5J3i-4" vertex="1" style="aspect=fixed;perimeter=ellipsePerimeter;html=1;align=center;shadow=0;dashed=0;image;image=img/lib/ibm/vpc/PublicGateway.svg;fontColor=#000000;labelPosition=center;verticalLabelPosition=bottom;verticalAlign=top;fontSize=12;flipH=1;labelBackgroundColor=none;spacingTop=-6;">
          <mxGeometry as="geometry" height="40" width="40" y="96" x="20" />
        </mxCell>
        <mxCell id="C-B6inx4KxPN2ot2ONpx-16" value="VPN &#xa;Gateway" parent="bTNue8S2Y31426Qi5J3i-4" vertex="1" style="shape=image;verticalLabelPosition=bottom;verticalAlign=top;aspect=fixed;image=img/lib/ibm/vpc/VPNGateway.svg;fontColor=#000000;labelPosition=center;align=center;fontSize=12;spacingTop=-6;">
          <mxGeometry as="geometry" height="40" width="40" y="232" x="20" />
        </mxCell>
        <mxCell id="C-B6inx4KxPN2ot2ONpx-52" value="" parent="bTNue8S2Y31426Qi5J3i-4" style="html=1;labelBackgroundColor=#ffffff;startArrow=classic;startFill=1;startSize=6;endArrow=classic;endFill=1;endSize=6;jettySize=auto;orthogonalLoop=1;strokeWidth=1;fontSize=14;" edge="1">
          <mxGeometry as="geometry" height="60" width="60" relative="1">
            <mxPoint as="sourcePoint" y="252" x="60" />
            <mxPoint as="targetPoint" y="252" x="91" />
          </mxGeometry>
        </mxCell>
        <mxCell id="bTNue8S2Y31426Qi5J3i-6" value="Subnet 10.10.10.0/24 : ACL 1" parent="bTNue8S2Y31426Qi5J3i-4" vertex="1" style="shape=mxgraph.ibm.box;prType=subnet;fontStyle=0;verticalAlign=top;align=left;spacingLeft=32;spacingTop=4;fillColor=#E6F0E2;rounded=0;whiteSpace=wrap;html=1;strokeColor=#00882B;strokeWidth=1;dashed=0;container=1;spacing=-4;collapsible=0;">
          <mxGeometry as="geometry" height="415" width="200" y="35" x="90.5" />
        </mxCell>
        <mxCell id="C-B6inx4KxPN2ot2ONpx-7" value="VSI" parent="bTNue8S2Y31426Qi5J3i-6" vertex="1" style="aspect=fixed;perimeter=ellipsePerimeter;html=1;align=center;shadow=0;dashed=0;image;image=img/lib/ibm/vpc/Instance.svg;dashPattern=1 1;fontColor=#000000;fontSize=12;labelPosition=center;verticalLabelPosition=bottom;verticalAlign=top;imageBackground=none;labelBackgroundColor=none;spacingTop=-6;spacingLeft=23;">
          <mxGeometry as="geometry" height="97.83" width="97.83" y="150" x="60" />
        </mxCell>
        <mxCell id="C-B6inx4KxPN2ot2ONpx-24" value="&lt;div&gt;Floating &lt;br&gt;&lt;/div&gt;&lt;div&gt;IP&lt;/div&gt;" parent="bTNue8S2Y31426Qi5J3i-6" vertex="1" style="aspect=fixed;perimeter=ellipsePerimeter;html=1;align=center;shadow=0;dashed=0;image;image=img/lib/ibm/vpc/FloatingIP.svg;fontColor=#000000;labelPosition=center;verticalLabelPosition=bottom;verticalAlign=top;fontSize=12;spacingLeft=-1;spacingTop=-19;spacingBottom=-20;rotation=0;textDirection=rtl;flipH=0;flipV=1;direction=west;labelBackgroundColor=none;">
          <mxGeometry as="geometry" height="37" width="37" y="178.28883495145632" x="33" />
        </mxCell>
        <mxCell id="gQvgzCO9joUDTt-hcoOc-62" value="" parent="bTNue8S2Y31426Qi5J3i-6" vertex="1" style="rounded=0;whiteSpace=wrap;html=1;">
          <mxGeometry as="geometry" height="80" width="180" y="330" x="10" />
        </mxCell>
        <mxCell id="gQvgzCO9joUDTt-hcoOc-3" value="" parent="bTNue8S2Y31426Qi5J3i-6" vertex="1" style="aspect=fixed;perimeter=ellipsePerimeter;html=1;align=center;shadow=0;dashed=0;fontColor=#4277BB;labelBackgroundColor=#ffffff;fontSize=12;spacingTop=3;image;image=img/lib/ibm/vpc/BlockStorage.svg;">
          <mxGeometry as="geometry" height="42" width="42" y="341.1474074074074" x="139.5" />
        </mxCell>
        <mxCell id="gQvgzCO9joUDTt-hcoOc-63" value="" parent="bTNue8S2Y31426Qi5J3i-6" vertex="1" style="aspect=fixed;perimeter=ellipsePerimeter;html=1;align=center;shadow=0;dashed=0;fontColor=#4277BB;labelBackgroundColor=#ffffff;fontSize=12;spacingTop=3;image;image=img/lib/ibm/vpc/BlockStorage.svg;">
          <mxGeometry as="geometry" height="42" width="42" y="341.1474074074074" x="82" />
        </mxCell>
        <mxCell id="gQvgzCO9joUDTt-hcoOc-77" value="" parent="bTNue8S2Y31426Qi5J3i-6" vertex="1" style="aspect=fixed;perimeter=ellipsePerimeter;html=1;align=center;shadow=0;dashed=0;fontColor=#4277BB;labelBackgroundColor=#ffffff;fontSize=12;spacingTop=3;image;image=img/lib/ibm/vpc/BlockStorage.svg;">
          <mxGeometry as="geometry" height="42" width="42" y="341.1474074074074" x="19.5" />
        </mxCell>
        <mxCell id="gQvgzCO9joUDTt-hcoOc-79" value="Block Storage" parent="bTNue8S2Y31426Qi5J3i-6" vertex="1" style="text;html=1;strokeColor=none;fillColor=none;align=center;verticalAlign=middle;whiteSpace=wrap;rounded=0;">
          <mxGeometry as="geometry" height="20" width="80" y="310" x="10" />
        </mxCell>
        <mxCell id="gQvgzCO9joUDTt-hcoOc-80" value="Log" parent="bTNue8S2Y31426Qi5J3i-6" vertex="1" style="text;html=1;strokeColor=none;fillColor=none;align=center;verticalAlign=middle;whiteSpace=wrap;rounded=0;">
          <mxGeometry as="geometry" height="20" width="40" y="383.1500000000001" x="19.5" />
        </mxCell>
        <mxCell id="gQvgzCO9joUDTt-hcoOc-81" value="Data" parent="bTNue8S2Y31426Qi5J3i-6" vertex="1" style="text;html=1;strokeColor=none;fillColor=none;align=center;verticalAlign=middle;whiteSpace=wrap;rounded=0;">
          <mxGeometry as="geometry" height="20" width="40" y="383.1500000000001" x="79" />
        </mxCell>
        <mxCell id="gQvgzCO9joUDTt-hcoOc-82" value="Backup" parent="bTNue8S2Y31426Qi5J3i-6" vertex="1" style="text;html=1;strokeColor=none;fillColor=none;align=center;verticalAlign=middle;whiteSpace=wrap;rounded=0;">
          <mxGeometry as="geometry" height="20" width="40" y="383.1500000000001" x="150" />
        </mxCell>
        <mxCell id="gQvgzCO9joUDTt-hcoOc-83" value="&lt;b&gt;&lt;font style=&quot;font-size: 14px&quot;&gt;Primary Hana&lt;br&gt;Instance&lt;/font&gt;&lt;/b&gt;" parent="bTNue8S2Y31426Qi5J3i-6" vertex="1" style="text;html=1;strokeColor=none;fillColor=none;align=center;verticalAlign=middle;whiteSpace=wrap;rounded=0;">
          <mxGeometry as="geometry" height="60" width="115" y="100" x="51.41" />
        </mxCell>
        <mxCell id="gQvgzCO9joUDTt-hcoOc-87" value="" parent="bTNue8S2Y31426Qi5J3i-6" style="endArrow=classic;html=1;exitX=0.5;exitY=1;exitDx=0;exitDy=0;" edge="1" source="C-B6inx4KxPN2ot2ONpx-7">
          <mxGeometry as="geometry" height="50" width="50" relative="1">
            <mxPoint as="sourcePoint" y="240" x="299.5" />
            <mxPoint as="targetPoint" y="330" x="109.5" />
          </mxGeometry>
        </mxCell>
        <mxCell id="C-B6inx4KxPN2ot2ONpx-50" value="" parent="bTNue8S2Y31426Qi5J3i-4" style="html=1;labelBackgroundColor=#ffffff;endArrow=classic;endFill=1;endSize=6;jettySize=auto;orthogonalLoop=1;strokeWidth=1;fontSize=14;" edge="1">
          <mxGeometry as="geometry" height="60" width="60" relative="1">
            <mxPoint as="sourcePoint" y="116" x="90" />
            <mxPoint as="targetPoint" y="116" x="60" />
          </mxGeometry>
        </mxCell>
        <mxCell id="C-B6inx4KxPN2ot2ONpx-51" value="" parent="bTNue8S2Y31426Qi5J3i-3" style="html=1;labelBackgroundColor=#ffffff;endArrow=classic;endFill=1;endSize=6;jettySize=auto;orthogonalLoop=1;strokeWidth=1;fontSize=14;" edge="1">
          <mxGeometry as="geometry" height="60" width="60" relative="1">
            <mxPoint as="sourcePoint" y="152" x="33" />
            <mxPoint as="targetPoint" y="152" x="-48" />
          </mxGeometry>
        </mxCell>
        <mxCell id="C-B6inx4KxPN2ot2ONpx-53" value="" parent="bTNue8S2Y31426Qi5J3i-3" style="html=1;labelBackgroundColor=#ffffff;startArrow=classic;startFill=1;startSize=6;endArrow=classic;endFill=1;endSize=6;jettySize=auto;orthogonalLoop=1;strokeWidth=1;fontSize=14;" edge="1">
          <mxGeometry as="geometry" height="60" width="60" relative="1">
            <mxPoint as="sourcePoint" y="289" x="-56" />
            <mxPoint as="targetPoint" y="289" x="33" />
          </mxGeometry>
        </mxCell>
        <mxCell id="gQvgzCO9joUDTt-hcoOc-103" value="" parent="bTNue8S2Y31426Qi5J3i-3" style="endArrow=classic;startArrow=classic;html=1;entryX=-0.011;entryY=0.405;entryDx=0;entryDy=0;entryPerimeter=0;exitX=0.998;exitY=0.404;exitDx=0;exitDy=0;exitPerimeter=0;" edge="1" source="bTNue8S2Y31426Qi5J3i-4" target="bTNue8S2Y31426Qi5J3i-5">
          <mxGeometry as="geometry" height="50" width="50" relative="1">
            <mxPoint as="sourcePoint" y="322" x="403" />
            <mxPoint as="targetPoint" y="272" x="453" />
          </mxGeometry>
        </mxCell>
        <mxCell id="C-B6inx4KxPN2ot2ONpx-25" value="&lt;div&gt;Direct &lt;br&gt;&lt;/div&gt;&lt;div&gt;Link&lt;/div&gt;" parent="bTNue8S2Y31426Qi5J3i-2" vertex="1" style="aspect=fixed;perimeter=ellipsePerimeter;html=1;align=right;shadow=0;dashed=0;image;image=img/lib/ibm/vpc/DirectLink.svg;fontSize=12;labelPosition=left;verticalLabelPosition=middle;verticalAlign=middle;">
          <mxGeometry as="geometry" height="40" width="40" y="441" x="735" />
        </mxCell>
        <mxCell id="C-B6inx4KxPN2ot2ONpx-28" value="&lt;div&gt;Implicit &lt;br&gt;&lt;/div&gt;&lt;div&gt;Router&lt;/div&gt;" parent="bTNue8S2Y31426Qi5J3i-2" vertex="1" style="aspect=fixed;perimeter=ellipsePerimeter;html=1;align=center;shadow=0;dashed=0;image;image=img/lib/ibm/vpc/Router.svg;spacingTop=-5;">
          <mxGeometry as="geometry" height="40" width="40" y="563" x="735" />
        </mxCell>
        <mxCell id="C-B6inx4KxPN2ot2ONpx-93" value="" parent="bTNue8S2Y31426Qi5J3i-2" style="html=1;labelBackgroundColor=#ffffff;startArrow=classic;startFill=1;startSize=6;endArrow=classic;endFill=1;endSize=6;jettySize=auto;orthogonalLoop=1;strokeWidth=1;fontSize=14;exitX=1;exitY=0.5;exitDx=0;exitDy=0;entryX=0;entryY=0.5;entryDx=0;entryDy=0;" edge="1" target="C-B6inx4KxPN2ot2ONpx-28">
          <mxGeometry as="geometry" height="60" width="60" relative="1">
            <mxPoint as="sourcePoint" y="582.5" x="633" />
            <mxPoint as="targetPoint" y="583" x="696" />
          </mxGeometry>
        </mxCell>
        <mxCell id="C-B6inx4KxPN2ot2ONpx-40" value="&lt;div&gt;Public&lt;/div&gt;&lt;div&gt; Network&lt;/div&gt;" parent="1" vertex="1" style="shape=mxgraph.ibm.box;prType=public;fontStyle=0;verticalAlign=top;align=left;spacingLeft=32;spacingTop=0;fillColor=none;rounded=0;whiteSpace=wrap;html=1;strokeColor=#4376BB;strokeWidth=3;dashed=0;container=1;spacing=-4;collapsible=0;labelBackgroundColor=none;fontColor=#000000;">
          <mxGeometry as="geometry" height="697" width="102" y="910" x="88" />
        </mxCell>
        <mxCell id="C-B6inx4KxPN2ot2ONpx-39" value="VPN&#xa;Connection&#xa;" parent="C-B6inx4KxPN2ot2ONpx-40" vertex="1" style="shape=image;verticalLabelPosition=bottom;verticalAlign=top;aspect=fixed;image=img/lib/ibm/vpc/VPNConnection.svg;fontColor=#000000;labelPosition=center;align=center;fontSize=12;spacingTop=-5;">
          <mxGeometry as="geometry" height="40" width="40" y="349" x="34" />
        </mxCell>
        <mxCell id="C-B6inx4KxPN2ot2ONpx-36" value="User" parent="C-B6inx4KxPN2ot2ONpx-40" vertex="1" style="aspect=fixed;perimeter=ellipsePerimeter;html=1;align=center;shadow=0;dashed=0;image;image=img/lib/ibm/users/user.svg;spacingTop=-5;labelPosition=center;verticalLabelPosition=top;verticalAlign=bottom;">
          <mxGeometry as="geometry" height="40" width="40" y="88" x="31" />
        </mxCell>
        <mxCell id="C-B6inx4KxPN2ot2ONpx-31" value="Internet" parent="C-B6inx4KxPN2ot2ONpx-40" vertex="1" style="aspect=fixed;perimeter=ellipsePerimeter;html=1;align=center;shadow=0;dashed=0;image;image=img/lib/ibm/vpc/Internet.svg;labelPosition=center;verticalLabelPosition=bottom;verticalAlign=top;fontSize=12;spacingTop=-5;">
          <mxGeometry as="geometry" height="60" width="60" y="199" x="22" />
        </mxCell>
        <mxCell id="C-B6inx4KxPN2ot2ONpx-46" value="&lt;font style=&quot;font-size: 10px&quot;&gt;Shows primary &lt;br&gt;&lt;/font&gt;&lt;div style=&quot;font-size: 10px&quot;&gt;&lt;font style=&quot;font-size: 10px&quot;&gt;interface for VSIs &lt;br&gt;&lt;/font&gt;&lt;/div&gt;&lt;div style=&quot;font-size: 10px&quot;&gt;&lt;font style=&quot;font-size: 10px&quot;&gt;in subnet and &lt;br&gt;&lt;/font&gt;&lt;/div&gt;&lt;div style=&quot;font-size: 10px&quot;&gt;&lt;font style=&quot;font-size: 10px&quot;&gt;security group &lt;br&gt;&lt;/font&gt;&lt;/div&gt;&lt;div style=&quot;font-size: 10px&quot;&gt;&lt;font style=&quot;font-size: 10px&quot;&gt;shown, and VPC &lt;br&gt;&lt;/font&gt;&lt;/div&gt;&lt;div style=&quot;font-size: 10px&quot;&gt;&lt;font style=&quot;font-size: 10px&quot;&gt;enabled for &lt;br&gt;&lt;/font&gt;&lt;/div&gt;&lt;div style=&quot;font-size: 10px&quot;&gt;&lt;font style=&quot;font-size: 10px&quot;&gt;Classic Access.&lt;br&gt;&lt;/font&gt;&lt;/div&gt;&lt;div style=&quot;font-size: 10px&quot;&gt;&lt;font style=&quot;font-size: 10px&quot;&gt;&lt;br&gt;&lt;/font&gt;&lt;/div&gt;&lt;div style=&quot;font-size: 10px&quot;&gt;&lt;font style=&quot;font-size: 10px&quot;&gt;Each VSI can have&lt;/font&gt;&lt;/div&gt;&lt;div style=&quot;font-size: 10px&quot;&gt;&lt;font style=&quot;font-size: 10px&quot;&gt;multiple interfaces&lt;br&gt;&lt;/font&gt;&lt;/div&gt;&lt;div style=&quot;font-size: 10px&quot;&gt;&lt;font style=&quot;font-size: 10px&quot;&gt;in &lt;/font&gt;&lt;font style=&quot;font-size: 10px&quot;&gt;same or other &lt;br&gt;&lt;/font&gt;&lt;/div&gt;&lt;div style=&quot;font-size: 10px&quot;&gt;&lt;font style=&quot;font-size: 10px&quot;&gt;subnet and each &lt;br&gt;&lt;/font&gt;&lt;/div&gt;&lt;div style=&quot;font-size: 10px&quot;&gt;&lt;font style=&quot;font-size: 10px&quot;&gt;interface can&lt;/font&gt;&lt;/div&gt;&lt;div style=&quot;font-size: 10px&quot;&gt;&lt;font style=&quot;font-size: 10px&quot;&gt;be in multiple &lt;br&gt;&lt;/font&gt;&lt;/div&gt;&lt;div style=&quot;font-size: 10px&quot;&gt;&lt;font style=&quot;font-size: 10px&quot;&gt;security &lt;/font&gt;&lt;font style=&quot;font-size: 10px&quot;&gt;groups.&lt;/font&gt;&lt;/div&gt;&lt;div style=&quot;font-size: 10px&quot;&gt;&lt;font style=&quot;font-size: 10px&quot;&gt;&amp;nbsp; &lt;/font&gt;&lt;/div&gt;" parent="C-B6inx4KxPN2ot2ONpx-40" vertex="1" style="text;html=1;resizable=0;autosize=1;align=center;verticalAlign=middle;points=[];fillColor=none;strokeColor=none;rounded=0;labelBackgroundColor=none;fontColor=#000000;">
          <mxGeometry as="geometry" height="230" width="100" y="450" />
        </mxCell>
        <mxCell id="C-B6inx4KxPN2ot2ONpx-57" value="" parent="C-B6inx4KxPN2ot2ONpx-40" style="html=1;labelBackgroundColor=#ffffff;startArrow=classic;startFill=1;startSize=6;endArrow=classic;endFill=1;endSize=6;jettySize=auto;orthogonalLoop=1;strokeWidth=1;fontSize=14;" edge="1">
          <mxGeometry as="geometry" height="60" width="60" relative="1">
            <mxPoint as="sourcePoint" y="349" x="53.5" />
            <mxPoint as="targetPoint" y="277" x="53.5" />
          </mxGeometry>
        </mxCell>
        <mxCell id="C-B6inx4KxPN2ot2ONpx-61" value="" parent="C-B6inx4KxPN2ot2ONpx-40" style="html=1;labelBackgroundColor=#ffffff;startArrow=classic;startFill=1;startSize=6;endArrow=classic;endFill=1;endSize=6;jettySize=auto;orthogonalLoop=1;strokeWidth=1;fontSize=14;" edge="1">
          <mxGeometry as="geometry" height="60" width="60" relative="1">
            <mxPoint as="sourcePoint" y="199" x="51.5" />
            <mxPoint as="targetPoint" y="127" x="51.5" />
          </mxGeometry>
        </mxCell>
        <mxCell id="C-B6inx4KxPN2ot2ONpx-42" value="Enterprise Network" parent="1" vertex="1" style="shape=mxgraph.ibm.box;prType=enterprise;fontStyle=0;verticalAlign=top;align=left;spacingLeft=32;spacingTop=0;fillColor=none;rounded=0;whiteSpace=wrap;html=1;strokeColor=#4376BB;strokeWidth=3;dashed=0;container=1;spacing=-4;collapsible=0;labelBackgroundColor=none;fontColor=#000000;">
          <mxGeometry as="geometry" height="697" width="102" y="910" x="1008" />
        </mxCell>
        <mxCell id="C-B6inx4KxPN2ot2ONpx-41" value="&lt;div&gt;Enterprise&lt;/div&gt;&lt;div&gt;User Directory&lt;br&gt;&lt;/div&gt;" parent="C-B6inx4KxPN2ot2ONpx-42" vertex="1" style="aspect=fixed;perimeter=ellipsePerimeter;html=1;align=center;shadow=0;dashed=0;image;image=img/lib/ibm/data/enterprise_user_directory.svg;fontColor=#000000;spacingTop=-5;">
          <mxGeometry as="geometry" height="40" width="40" y="197" x="31" />
        </mxCell>
        <mxCell id="C-B6inx4KxPN2ot2ONpx-43" value="&lt;div&gt;Enterprise&lt;/div&gt;&lt;div&gt;Applications&lt;br&gt;&lt;/div&gt;" parent="C-B6inx4KxPN2ot2ONpx-42" vertex="1" style="aspect=fixed;perimeter=ellipsePerimeter;html=1;align=center;shadow=0;dashed=0;image;image=img/lib/ibm/applications/enterprise_applications.svg;spacingTop=-5;">
          <mxGeometry as="geometry" height="40" width="40" y="480" x="30" />
        </mxCell>
        <mxCell id="C-B6inx4KxPN2ot2ONpx-45" value="&lt;div&gt;Enterprise&lt;/div&gt;&lt;div&gt;Data&lt;br&gt;&lt;/div&gt;" parent="C-B6inx4KxPN2ot2ONpx-42" vertex="1" style="aspect=fixed;perimeter=ellipsePerimeter;html=1;align=center;shadow=0;dashed=0;image;image=img/lib/ibm/data/enterprise_data.svg;fontColor=#000000;spacingTop=-5;">
          <mxGeometry as="geometry" height="40" width="40" y="601" x="31" />
        </mxCell>
        <mxCell id="C-B6inx4KxPN2ot2ONpx-66" value="" parent="C-B6inx4KxPN2ot2ONpx-42" style="html=1;labelBackgroundColor=#ffffff;startArrow=classic;startFill=1;startSize=6;endArrow=classic;endFill=1;endSize=6;jettySize=auto;orthogonalLoop=1;strokeWidth=1;fontSize=14;" edge="1">
          <mxGeometry as="geometry" height="60" width="60" relative="1">
            <mxPoint as="sourcePoint" y="601" x="49.5" />
            <mxPoint as="targetPoint" y="550" x="49.5" />
            <Array as="points">
              <mxPoint y="580" x="49.5" />
            </Array>
          </mxGeometry>
        </mxCell>
        <mxCell id="C-B6inx4KxPN2ot2ONpx-67" value="" parent="C-B6inx4KxPN2ot2ONpx-42" style="html=1;labelBackgroundColor=#ffffff;startArrow=classic;startFill=1;startSize=6;endArrow=classic;endFill=1;endSize=6;jettySize=auto;orthogonalLoop=1;strokeWidth=1;fontSize=14;" edge="1">
          <mxGeometry as="geometry" height="60" width="60" relative="1">
            <mxPoint as="sourcePoint" y="480" x="49.5" />
            <mxPoint as="targetPoint" y="410" x="49.5" />
          </mxGeometry>
        </mxCell>
        <mxCell id="C-B6inx4KxPN2ot2ONpx-91" value="" parent="C-B6inx4KxPN2ot2ONpx-42" style="html=1;labelBackgroundColor=#ffffff;startArrow=classic;startFill=1;startSize=6;endArrow=none;endFill=0;endSize=6;jettySize=auto;orthogonalLoop=1;strokeWidth=1;fontSize=14;" edge="1">
          <mxGeometry as="geometry" height="60" width="60" relative="1">
            <mxPoint as="sourcePoint" y="340" x="49.5" />
            <mxPoint as="targetPoint" y="268" x="49.5" />
          </mxGeometry>
        </mxCell>
        <mxCell id="C-B6inx4KxPN2ot2ONpx-44" value="&lt;div&gt;Enterprise&lt;/div&gt;&lt;div&gt;User&lt;br&gt;&lt;/div&gt;" parent="C-B6inx4KxPN2ot2ONpx-42" vertex="1" style="aspect=fixed;perimeter=ellipsePerimeter;html=1;align=center;shadow=0;dashed=0;image;image=img/lib/ibm/users/user.svg;spacingTop=-5;">
          <mxGeometry as="geometry" height="40" width="40" y="328.5" x="31" />
        </mxCell>
        <mxCell id="C-B6inx4KxPN2ot2ONpx-55" value="" parent="1" style="edgeStyle=elbowEdgeStyle;rounded=0;elbow=vertical;html=1;labelBackgroundColor=#ffffff;startArrow=classic;startFill=1;startSize=6;endArrow=classic;endFill=1;endSize=6;jettySize=auto;orthogonalLoop=1;strokeWidth=1;fontSize=14;entryX=1;entryY=0.5;entryDx=0;entryDy=0;" edge="1" target="C-B6inx4KxPN2ot2ONpx-24">
          <mxGeometry as="geometry" height="60" width="60" relative="1">
            <mxPoint as="sourcePoint" y="1160" x="167" />
            <mxPoint as="targetPoint" y="1180" x="210" />
            <Array as="points">
              <mxPoint y="1195" x="200" />
            </Array>
          </mxGeometry>
        </mxCell>
        <mxCell id="C-B6inx4KxPN2ot2ONpx-92" value="" parent="1" style="html=1;labelBackgroundColor=#ffffff;startArrow=classic;startFill=1;startSize=6;endArrow=classic;endFill=1;endSize=6;jettySize=auto;orthogonalLoop=1;strokeWidth=1;fontSize=14;entryX=0;entryY=0.5;entryDx=0;entryDy=0;exitX=1;exitY=0.5;exitDx=0;exitDy=0;" edge="1" source="C-B6inx4KxPN2ot2ONpx-25" target="C-B6inx4KxPN2ot2ONpx-43">
          <mxGeometry as="geometry" height="60" width="60" relative="1">
            <mxPoint as="sourcePoint" y="1418.5" x="939.5" />
            <mxPoint as="targetPoint" y="1418.5" x="1039.5" />
          </mxGeometry>
        </mxCell>
        <mxCell id="gQvgzCO9joUDTt-hcoOc-105" value="" parent="1" style="html=1;labelBackgroundColor=#ffffff;startArrow=classic;startFill=1;startSize=6;endArrow=classic;endFill=1;endSize=6;jettySize=auto;orthogonalLoop=1;strokeWidth=1;fontSize=14;exitX=0.957;exitY=0.764;exitDx=0;exitDy=0;exitPerimeter=0;" edge="1" source="bTNue8S2Y31426Qi5J3i-2">
          <mxGeometry as="geometry" height="60" width="60" relative="1">
            <mxPoint as="sourcePoint" y="1430" x="970" />
            <mxPoint as="targetPoint" y="1510" x="960" />
            <Array as="points">
              <mxPoint y="1510" x="960" />
              <mxPoint y="1490" x="960" />
            </Array>
          </mxGeometry>
        </mxCell>
        <mxCell id="dCvMZ2OZZOgdDhihUdpA-1" parent="0" />
        <mxCell id="dCvMZ2OZZOgdDhihUdpA-84" parent="0" />
        <mxCell id="dCvMZ2OZZOgdDhihUdpA-85" value="Connector" parent="0" />
        <mxCell id="dCvMZ2OZZOgdDhihUdpA-86" parent="0" />
        <mxCell id="dCvMZ2OZZOgdDhihUdpA-87" value="Connector" parent="0" />
        <mxCell id="dCvMZ2OZZOgdDhihUdpA-88" parent="0" />
        <mxCell id="dCvMZ2OZZOgdDhihUdpA-89" parent="0" />
        <mxCell id="dCvMZ2OZZOgdDhihUdpA-90" value="Connector" parent="0" />
        <mxCell id="dCvMZ2OZZOgdDhihUdpA-91" parent="0" />
        <mxCell id="dCvMZ2OZZOgdDhihUdpA-92" value="Connector" parent="0" />
      </root>
    </mxGraphModel>
  </diagram>
</mxfile>
